<svg xmlns="http://www.w3.org/2000/svg" viewBox="0 0 64 64" width="64" height="64">
  <defs>
    <linearGradient id="g" x1="0" y1="0" x2="0" y2="1">
      <stop offset="0" stop-color="#f7e4a8"/>
      <stop offset=".5" stop-color="#e9c46f"/>
      <stop offset="1" stop-color="#c99a3a"/>
    </linearGradient>
  </defs>
  <!-- halo -->
  <ellipse cx="32" cy="13" rx="11.5" ry="4" fill="none" stroke="url(#g)" stroke-width="3.2"/>
  <ellipse cx="32" cy="13" rx="11.5" ry="4" fill="none" stroke="#fff6df" stroke-width=".9" opacity=".6"/>
  <!-- right wing (mirrored for left) -->
  <g fill="url(#g)" stroke="#b9862c" stroke-width="1" stroke-linejoin="round">
    <path d="M32 48 C34 39 40 30 53 25 C47 31 44 35 41 39 C45 38 49 39 52 42
             C46 41 41 42 38 45 C40 45 41 47 41 49 C37 47 34 47 32 48 Z"/>
    <path d="M32 48 C30 39 24 30 11 25 C17 31 20 35 23 39 C19 38 15 39 12 42
             C18 41 23 42 26 45 C24 45 23 47 23 49 C27 47 30 47 32 48 Z"/>
  </g>
  <!-- center seam -->
  <path d="M32 30 L32 48" stroke="#b9862c" stroke-width="1" opacity=".35" stroke-linecap="round"/>
</svg>
